<svg width="20" height="20" viewBox="0 0 20 20" fill="none" xmlns="http://www.w3.org/2000/svg">
<path d="M5.7 3.95a2.42 2.42 0 0 1 4.3-1 2.42 2.42 0 0 1 4.3 1l.12.63.41.08A2.7 2.7 0 0 1 17 7.3v.2a2.5 2.5 0 0 1-.8 1.84 3.25 3.25 0 0 1-.77 6.08l-.04.19A2.97 2.97 0 0 1 10 16.68a2.97 2.97 0 0 1-5.39-1.07l-.03-.19a3.25 3.25 0 0 1-.78-6.08A2.5 2.5 0 0 1 3 7.5v-.2c0-1.28.9-2.4 2.17-2.64l.4-.08.13-.63ZM14 10.9v.59c0 .83-.67 1.5-1.5 1.5h-2v2.03a1.97 1.97 0 0 0 3.9.38l.11-.5a.5.5 0 0 1 .4-.4l.28-.06a2.25 2.25 0 0 0-.28-4.44 1.5 1.5 0 0 1-.91.9Zm-1 0a1.5 1.5 0 1 1 1.9-1.96A1.5 1.5 0 0 0 16 7.5v-.2c0-.8-.57-1.5-1.37-1.66l-.73-.15a.5.5 0 0 1-.39-.4l-.2-.95a1.42 1.42 0 0 0-2.81.28V12h2a.5.5 0 0 0 .5-.5v-.59ZM9.5 6V4.42a1.42 1.42 0 0 0-2.82-.28l-.19.96a.5.5 0 0 1-.4.39l-.72.15A1.7 1.7 0 0 0 4 7.3v.2C4 8.33 4.67 9 5.5 9h1c.83 0 1.5.67 1.5 1.5v.59a1.5 1.5 0 1 1-1 0v-.59a.5.5 0 0 0-.5-.5H5.25a2.25 2.25 0 0 0-.44 4.45l.29.06c.2.04.35.2.39.4l.1.5a1.97 1.97 0 0 0 3.91-.38V7h-.59a1.5 1.5 0 1 1 0-1h.59ZM8 6.5a.5.5 0 1 0-1 0 .5.5 0 0 0 1 0ZM7.5 13a.5.5 0 1 0 0-1 .5.5 0 0 0 0 1Zm6-3a.5.5 0 1 0 0-1 .5.5 0 0 0 0 1Z" fill="#2563EB"/>
</svg>